<?xml version="1.0" standalone="yes"?>
<svg xmlns="http://www.w3.org/2000/svg" width="100" height="100">
<path style="fill:#ffffff; stroke:none;" d="M0 0L0 100L100 100L100 0L0 0z"/>
<path style="fill:#000000; stroke:none;" d="M33.2284 10.7423C28.716 12.8502 30 19.97 30 24L30 55C30 58.6609 28.9856 64.3795 31.179 67.5664C33.6635 71.1762 40.2502 70 44 70L73 70C77.0965 70 82.9692 71.034 86.7716 69.2577C91.284 67.1498 90 60.0299 90 56L90 25C90 21.3391 91.0144 15.6205 88.821 12.4336C86.3365 8.82383 79.7498 10 76 10L47 10C42.9035 10 37.0308 8.96604 33.2284 10.7423z"/>
<path style="fill:#ffffff; stroke:none;" d="M37 17L37 63L83 63L83 17L37 17z"/>
<path style="fill:#000000; stroke:none;" d="M59 23C59.381 27.8896 61.276 28.8449 66 29C60.0091 34.9909 53.855 40.8574 48.0201 47C46.347 48.7613 42.8023 51.9103 44.7515 54.6235C47.1264 57.9291 51.2216 53.6692 53 51.9799C59.1426 46.145 65.0091 39.9909 71 34L71 40L77 40C77 36.0309 78.5526 27.8614 75.9722 24.6034C73.2456 21.1608 62.9836 23 59 23M50 76L43 76L43 83L17 83L17 57L24 57L24 50C20.6502 50 13.3705 48.6455 11.0278 51.6034C9.37562 53.6894 10.0011 57.5308 10 60L10 80C10.0012 82.6168 9.25048 87.1087 11.6034 88.9722C13.6894 90.6244 17.5308 89.9989 20 90L40 90C42.6168 89.9988 47.1087 90.7495 48.9722 88.3966C51.1787 85.6107 50 79.3572 50 76z"/>
</svg>
